<svg version="1.2" baseProfile="tiny-ps" xmlns="http://www.w3.org/2000/svg" viewBox="0 0 512 512" width="37" height="37">
	<title>placeholder-svg</title>
	<defs>
		<linearGradient id="grd1" gradientUnits="userSpaceOnUse"  x1="63.974" y1="256.001" x2="448.025" y2="256.001">
			<stop offset="0" stop-color="#012d6a"  />
			<stop offset="1" stop-color="#f25d23"  />
		</linearGradient>
		<linearGradient id="grd2" gradientUnits="userSpaceOnUse"  x1="198.345" y1="159.265" x2="313.662" y2="159.265">
			<stop offset="0" stop-color="#012d6a"  />
			<stop offset="1" stop-color="#f25d23"  />
		</linearGradient>
	</defs>
	<style>
		tspan { white-space:pre }
		.shp0 { fill: url(#grd1) } 
		.shp1 { fill: url(#grd2) } 
	</style>
	<g id="Layer">
		<g id="Layer">
			<path id="Layer" fill-rule="evenodd" class="shp0" d="M444.43 508.2C442 510.68 438.72 512 435.39 512C433.66 512 431.91 511.64 430.26 510.91L345.7 473.26L261.14 510.91C257.87 512.36 254.13 512.36 250.86 510.91L166.31 473.26L81.75 510.91C76.92 513.06 71.27 511.97 67.58 508.2C63.88 504.42 62.93 498.74 65.19 493.97L132.68 351.18C133.98 348.45 136.21 346.27 138.97 345.04L172.74 330.01L114.56 232.49C114.42 232.26 114.29 232.02 114.17 231.78C102.61 209.22 96.58 183.82 96.73 158.3C96.98 116.55 113.43 77.11 143.06 47.24C172.69 17.36 212 0.59 253.75 0.02C296.73 -0.59 337.25 15.7 367.83 45.86C398.42 76.03 415.27 116.31 415.27 159.27C415.27 184.8 409.4 209.2 397.83 231.78C397.71 232.02 397.58 232.26 397.44 232.49L339.25 330.01L372.83 344.96C375.63 346.15 377.97 348.34 379.31 351.19L446.81 493.97C449.07 498.74 448.12 504.42 444.43 508.2ZM245.15 402.05C248.47 407.61 253.84 408.21 256 408.21C258.16 408.21 263.53 407.61 266.85 402.05L375.53 219.91C385.13 201.03 390 180.63 390 159.27C390 123.12 375.83 89.24 350.09 63.86C324.36 38.48 290.26 24.79 254.1 25.28C181.69 26.28 122.43 86.02 122 158.45C121.87 180.1 126.74 200.77 136.47 219.91L245.15 402.05ZM409.41 473.97L358.47 366.23L326.21 351.87L288.54 415C281.64 426.57 269.47 433.48 256 433.48C242.52 433.48 230.35 426.57 223.45 415L185.78 351.87L153.52 366.22L102.59 473.97L161.16 447.89C164.44 446.44 168.17 446.44 171.44 447.89L256 485.54L340.56 447.89C343.83 446.44 347.56 446.44 350.83 447.89L409.41 473.97Z" />
		</g>
	</g>
	<g id="Layer">
		<g id="Layer">
			<path id="Layer" fill-rule="evenodd" class="shp1" d="M313.66 159.26C313.66 191.06 287.8 216.92 256 216.92C224.21 216.92 198.35 191.06 198.35 159.26C198.35 127.47 224.21 101.61 256 101.61C287.8 101.61 313.66 127.47 313.66 159.26ZM288.4 159.27C288.4 141.4 273.87 126.87 256 126.87C238.14 126.87 223.61 141.4 223.61 159.27C223.61 177.13 238.14 191.66 256 191.66C273.87 191.66 288.4 177.13 288.4 159.27Z" />
		</g>
	</g>
	<g id="Layer">
	</g>
	<g id="Layer">
	</g>
	<g id="Layer">
	</g>
	<g id="Layer">
	</g>
	<g id="Layer">
	</g>
	<g id="Layer">
	</g>
	<g id="Layer">
	</g>
	<g id="Layer">
	</g>
	<g id="Layer">
	</g>
	<g id="Layer">
	</g>
	<g id="Layer">
	</g>
	<g id="Layer">
	</g>
	<g id="Layer">
	</g>
	<g id="Layer">
	</g>
	<g id="Layer">
	</g>
</svg>