<svg version="1.2" baseProfile="tiny-ps" xmlns="http://www.w3.org/2000/svg" viewBox="0 0 64 64" width="37" height="37">
	<title>mailbox-svg</title>
	<defs>
		<linearGradient id="grd1" gradientUnits="userSpaceOnUse"  x1="2" y1="32" x2="62" y2="32">
			<stop offset="0" stop-color="#012d6a"  />
			<stop offset="1" stop-color="#f25d23"  />
		</linearGradient>
	</defs>
	<style>
		tspan { white-space:pre }
		.shp0 { fill: url(#grd1) } 
	</style>
	<g id="Mailbox">
		<path id="Layer" fill-rule="evenodd" class="shp0" d="M49 2C50.71 2 52.4 2.34 53.97 2.99C55.55 3.65 56.98 4.61 58.19 5.81C59.39 7.02 60.35 8.45 61.01 10.03C61.66 11.6 62 13.29 62 15L62 33C62 33.13 61.97 33.26 61.92 33.38C61.87 33.5 61.8 33.61 61.71 33.71C61.61 33.8 61.5 33.87 61.38 33.92C61.26 33.97 61.13 34 61 34L43 34L43 61C43 61.13 42.97 61.26 42.92 61.38C42.87 61.5 42.8 61.61 42.71 61.71C42.61 61.8 42.5 61.87 42.38 61.92C42.26 61.97 42.13 62 42 62L32 62C31.87 62 31.74 61.97 31.62 61.92C31.5 61.87 31.39 61.8 31.29 61.71C31.2 61.61 31.13 61.5 31.08 61.38C31.03 61.26 31 61.13 31 61L31 41.73C30.9 41.78 30.8 41.82 30.7 41.85C30.6 41.88 30.5 41.91 30.4 41.93C30.29 41.96 30.19 41.97 30.08 41.98C29.98 41.99 29.87 42 29.76 42L10.24 42C9.72 42 9.22 41.87 8.78 41.62C8.33 41.37 7.95 41.01 7.68 40.58C7.42 40.14 7.26 39.65 7.24 39.13C7.22 38.62 7.32 38.12 7.55 37.66L9.38 34L3 34C2.87 34 2.74 33.97 2.62 33.92C2.5 33.87 2.39 33.8 2.29 33.71C2.2 33.61 2.13 33.5 2.08 33.38C2.03 33.26 2 33.13 2 33L2 15C2 14.87 2.03 14.74 2.08 14.62C2.13 14.5 2.2 14.39 2.29 14.29C2.39 14.2 2.5 14.13 2.62 14.08C2.74 14.03 2.87 14 3 14L10.05 14C10.17 12.5 10.55 11.03 11.17 9.65C11.79 8.28 12.64 7.02 13.69 5.94C14.75 4.86 15.98 3.97 17.33 3.31C18.69 2.65 20.15 2.23 21.65 2.07C21.68 2.06 21.7 2.05 21.73 2.04C21.76 2.03 21.79 2.03 21.82 2.02C21.85 2.01 21.88 2.01 21.91 2.01C21.94 2 21.97 2 22 2L49 2ZM23 4C21.64 4 20.29 4.26 19.03 4.75C17.76 5.24 16.59 5.96 15.59 6.88C14.59 7.8 13.76 8.89 13.16 10.11C12.55 11.33 12.18 12.65 12.05 14L29 14C29.13 14 29.26 14.03 29.38 14.08C29.5 14.13 29.61 14.2 29.71 14.29C29.8 14.39 29.87 14.5 29.92 14.62C29.97 14.74 30 14.87 30 15L30 32L34 32L34 15C34 13.55 33.72 12.12 33.17 10.79C32.61 9.45 31.8 8.24 30.78 7.22C29.76 6.2 28.55 5.39 27.21 4.83C25.88 4.28 24.45 4 23 4ZM26.5 32L19.05 25.35L18 26.29C17.73 26.53 17.41 26.72 17.07 26.86C16.73 26.99 16.37 27.05 16 27.05C15.63 27.05 15.27 26.99 14.93 26.86C14.59 26.72 14.27 26.53 14 26.29L12.95 25.34L5.5 32L26.5 32ZM28 30.66L28 17.34L20.56 24L28 30.66ZM26.5 16L5.5 16L15.34 24.79C15.43 24.88 15.53 24.94 15.65 24.98C15.76 25.03 15.88 25.05 16 25.05C16.13 25.05 16.25 25.03 16.36 24.98C16.47 24.94 16.58 24.88 16.67 24.79L26.5 16ZM4 17.34L4 30.66L11.45 24L4 17.34ZM30.04 39.96C30.13 39.94 30.21 39.9 30.29 39.85C30.37 39.8 30.44 39.74 30.5 39.67C30.56 39.61 30.62 39.53 30.66 39.45L33.38 34L11.62 34L9.34 38.55C9.27 38.71 9.23 38.87 9.24 39.04C9.25 39.22 9.3 39.38 9.39 39.53C9.48 39.67 9.6 39.79 9.75 39.87C9.9 39.96 10.07 40 10.24 40L29.76 40C29.86 40 29.95 39.99 30.04 39.96ZM41 34L35.62 34L33 39.24L33 60L41 60L41 34ZM60 15C60 13.56 59.71 12.13 59.16 10.79C58.61 9.46 57.8 8.25 56.77 7.23C55.75 6.2 54.54 5.39 53.21 4.84C51.87 4.29 50.44 4 49 4L29.92 4C30.85 4.58 31.7 5.28 32.46 6.07C33.21 6.87 33.86 7.75 34.39 8.71C34.92 9.67 35.33 10.69 35.6 11.75C35.87 12.81 36 13.9 36 15L36 32L60 32L60 15Z" />
	</g>
</svg>